<?xml version="1.0" encoding="UTF-8" standalone="no"?>
<!DOCTYPE svg PUBLIC "-//W3C//DTD SVG 1.1//EN" "http://www.w3.org/Graphics/SVG/1.1/DTD/svg11.dtd">
<svg xmlns="http://www.w3.org/2000/svg" version="1.1" viewBox="0.00 0.00 1024.00 1024.00">
<g stroke-width="2.00" fill="none" stroke-linecap="butt">
<path stroke="#8197ae" vector-effect="non-scaling-stroke" d="
  M 286.05 665.97
  L 287.55 665.97"
/>
<path stroke="#808184" vector-effect="non-scaling-stroke" d="
  M 287.55 665.97
  Q 318.27 665.92 349.00 666.00
  Q 351.20 666.01 352.32 665.06
  Q 410.46 616.19 463.10 565.10
  Q 490.37 538.65 510.05 519.28
  A 0.55 0.55 0.0 0 1 510.90 519.39
  C 521.19 536.18 529.56 549.46 540.82 568.37
  C 565.41 609.65 586.21 643.62 609.30 678.76
  A 0.29 0.29 0.0 0 0 609.83 678.66
  Q 617.01 645.36 626.87 596.42
  Q 660.49 429.63 674.64 357.31
  C 677.27 343.89 679.16 333.23 686.01 324.00
  Q 713.68 286.74 742.11 248.22
  C 744.27 245.29 745.05 243.49 745.07 240.00
  Q 745.11 233.58 744.21 223.57
  C 743.87 219.77 744.19 215.94 743.70 212.27
  Q 743.27 209.04 742.94 204.23
  Q 740.97 174.83 735.18 145.78
  C 731.01 124.82 722.97 104.85 710.69 87.41
  A 0.33 0.32 -37.4 0 0 710.22 87.35
  Q 664.83 123.78 606.50 167.00
  Q 603.94 168.90 599.24 169.24
  Q 585.43 170.25 579.14 170.81
  C 575.83 171.11 572.61 170.88 569.56 171.41
  C 564.63 172.26 558.26 171.82 553.77 172.43
  Q 550.02 172.95 547.21 172.96
  C 541.36 172.98 537.11 173.76 530.82 173.95
  Q 524.63 174.13 518.60 175.04
  A 6.72 6.71 -66.0 0 0 515.89 176.08
  L 292.37 324.25
  A 0.46 0.46 0.0 0 0 292.43 325.05
  C 309.89 333.18 329.33 343.60 348.03 352.05
  C 365.05 359.74 380.61 367.17 396.22 373.70
  A 1.30 1.30 0.0 0 1 396.91 375.42
  C 390.20 390.92 384.24 404.27 376.92 419.22
  Q 337.98 498.78 297.80 578.09
  Q 293.53 586.51 253.25 665.73
  A 0.21 0.20 -76.5 0 0 253.43 666.03
  L 286.05 665.97"
/>
<path stroke="#011933" vector-effect="non-scaling-stroke" d="
  M 287.55 665.97
  L 287.24 665.27"
/>
<path stroke="#155064" vector-effect="non-scaling-stroke" d="
  M 287.24 665.27
  Q 287.59 665.60 287.75 665.60
  Q 292.82 665.69 304.75 665.63
  Q 307.54 665.61 309.69 663.77"
/>
<path stroke="#011933" vector-effect="non-scaling-stroke" d="
  M 309.69 663.77
  Q 311.61 665.67 315.16 665.42
  Q 319.79 665.09 319.89 665.09
  Q 333.84 665.28 349.05 665.11
  A 4.43 4.41 28.2 0 0 351.42 664.40
  Q 352.95 663.43 355.63 661.13
  Q 381.39 639.09 406.70 616.44
  Q 432.29 593.54 444.88 581.12
  Q 447.46 578.57 450.07 576.01
  C 457.86 568.38 466.07 561.26 473.45 553.84
  C 484.62 542.62 497.00 530.86 509.46 518.68
  A 1.49 1.49 0.0 0 1 511.77 518.97
  C 518.61 530.17 526.05 541.32 533.27 553.45
  Q 562.94 603.30 576.77 625.68
  C 587.83 643.57 597.87 659.29 605.74 671.10
  Q 607.28 673.42 608.41 675.58
  A 0.53 0.53 0.0 0 0 609.39 675.45
  Q 618.41 633.35 625.51 597.79
  C 630.51 572.73 635.66 547.84 640.64 523.00
  Q 646.37 494.45 661.96 415.95
  Q 675.22 349.18 676.16 344.82
  Q 679.02 331.60 686.54 321.53
  Q 709.48 290.85 711.62 287.86
  Q 721.82 273.68 738.63 251.21
  C 742.38 246.21 744.23 244.47 744.03 239.02
  C 742.92 209.19 740.34 179.89 735.09 150.89
  C 731.16 129.16 723.50 107.21 710.71 89.40
  A 0.70 0.70 0.0 0 0 709.73 89.24
  Q 706.99 91.19 706.01 92.01
  Q 694.33 101.73 681.03 112.02
  Q 652.91 133.79 645.80 139.05
  Q 639.22 143.91 630.88 150.38
  Q 618.19 160.22 608.43 167.16
  Q 604.47 169.98 601.95 170.18
  Q 592.21 170.93 590.27 171.11
  Q 580.33 171.99 568.02 172.70
  C 556.19 173.39 543.67 174.65 531.98 174.88
  Q 529.02 174.94 526.04 175.35
  Q 524.18 175.60 520.18 175.97
  A 9.41 9.32 25.1 0 0 515.76 177.55
  L 487.08 196.97
  A 1.86 0.52 -15.5 0 1 486.88 197.09
  Q 482.52 199.31 478.91 202.39
  A 5.58 5.10 -77.3 0 1 478.15 202.92
  Q 472.48 206.04 466.22 210.66
  C 463.77 212.47 460.47 214.15 458.17 215.69
  Q 438.60 228.82 422.19 239.59
  C 417.99 242.35 412.69 246.27 407.00 249.81
  Q 400.55 253.82 395.46 257.23
  Q 376.06 270.25 364.98 277.47
  Q 347.35 288.93 338.59 295.13
  Q 335.19 297.53 326.66 303.04
  C 316.37 309.69 305.33 317.64 294.77 323.52
  A 0.92 0.92 0.0 0 0 294.86 325.17
  Q 303.01 328.56 310.22 332.27
  Q 335.11 345.11 354.09 353.49
  Q 369.21 360.18 377.80 364.30
  Q 386.28 368.37 397.00 372.84
  A 1.97 1.96 22.3 0 1 398.07 375.39
  Q 391.19 392.48 384.00 407.07
  Q 379.47 416.27 373.76 428.45
  Q 369.32 437.90 363.35 449.75
  Q 346.69 482.80 320.15 536.68
  C 318.68 539.67 316.81 542.71 315.31 545.81
  Q 305.06 566.96 287.72 600.51
  Q 286.44 602.99 285.20 605.41
  Q 272.36 630.68 255.24 664.02
  A 0.76 0.76 0.0 0 0 255.92 665.13
  Q 270.28 665.00 285.14 665.20
  Q 285.54 665.21 285.79 665.38
  Q 286.19 665.66 286.05 665.97"
/>
<path stroke="#16668d" vector-effect="non-scaling-stroke" d="
  M 309.69 663.77
  Q 371.92 610.93 430.73 554.48"
/>
<path stroke="#0c4f88" vector-effect="non-scaling-stroke" d="
  M 430.73 554.48
  Q 479.84 507.74 526.27 458.55"
/>
<path stroke="#0a3e83" vector-effect="non-scaling-stroke" d="
  M 526.27 458.55
  L 558.38 422.90
  A 0.34 0.33 -27.3 0 1 558.96 423.08
  C 559.95 431.35 560.20 438.89 561.09 448.29
  Q 565.40 493.72 574.50 540.60
  C 578.44 560.85 582.89 577.92 590.54 594.95
  Q 592.31 598.88 594.48 602.33
  A 0.52 0.51 -50.9 0 0 595.40 602.23
  Q 595.88 601.00 596.14 599.63
  Q 600.00 579.23 637.28 385.02
  Q 639.69 372.43 645.27 345.00
  Q 649.88 322.28 664.14 302.17
  C 680.18 279.56 697.02 258.06 712.62 238.86
  Q 714.05 237.10 714.08 234.25
  Q 714.21 223.95 714.12 213.75"
/>
<path stroke="#011933" vector-effect="non-scaling-stroke" d="
  M 714.12 213.75
  Q 715.23 209.38 714.81 204.71
  Q 714.18 197.78 714.18 197.72
  Q 714.01 194.11 713.46 189.54
  C 713.16 187.09 713.38 184.23 713.12 182.38
  Q 711.67 172.13 711.08 163.48
  A 1.91 0.06 77.7 0 0 710.82 162.07
  Q 710.39 159.97 710.11 157.05
  C 709.49 150.32 705.74 143.17 701.80 136.33
  A 2.03 2.03 0.0 0 0 698.82 135.73
  Q 658.94 165.88 618.99 195.57
  C 616.65 197.31 614.04 198.79 611.42 198.90
  Q 598.53 199.42 588.00 200.27
  Q 573.99 201.41 561.51 202.09
  C 558.94 202.23 556.20 202.82 553.81 202.88
  Q 547.62 203.04 543.89 203.43
  C 538.02 204.04 534.57 203.80 529.26 204.21
  Q 527.36 204.36 525.85 205.34
  Q 468.16 242.90 408.17 283.02
  C 405.82 284.60 403.53 285.70 401.78 287.04
  Q 399.19 289.02 390.25 295.02
  Q 376.52 304.23 354.48 319.48
  Q 353.79 319.96 352.99 321.33
  A 0.90 0.90 0.0 0 0 353.39 322.61
  L 403.49 345.27
  A 3.75 3.75 0.0 0 0 406.35 345.37
  L 448.48 329.91
  A 0.47 0.47 0.0 0 1 449.07 330.54
  Q 430.76 371.48 429.58 374.09
  Q 412.34 412.16 387.22 463.98
  Q 382.70 473.29 357.50 523.99
  Q 355.68 527.64 355.50 527.92
  C 353.46 531.12 352.27 534.90 350.73 537.86
  C 342.27 554.19 334.88 570.32 326.75 586.12
  Q 304.29 629.76 287.62 662.09
  Q 287.03 663.25 287.67 663.48"
/>
<path stroke="#16668d" vector-effect="non-scaling-stroke" d="
  M 287.67 663.48
  L 287.24 665.27"
/>
<path stroke="#09295a" vector-effect="non-scaling-stroke" d="
  M 714.12 213.75
  Q 713.34 213.61 712.88 213.28"
/>
<path stroke="#808184" vector-effect="non-scaling-stroke" d="
  M 712.88 213.28
  Q 714.08 212.29 713.87 209.53
  Q 711.53 179.40 709.16 160.14
  Q 707.60 147.50 700.61 136.47
  A 0.86 0.86 0.0 0 0 699.31 136.28
  Q 696.52 138.70 693.78 140.77
  Q 643.72 178.47 617.99 197.46
  Q 615.00 199.67 612.75 199.75
  Q 604.18 200.09 599.46 200.62
  C 595.45 201.08 592.13 200.78 588.57 201.35
  C 583.73 202.11 577.88 201.71 573.35 202.48
  C 568.95 203.22 565.06 202.78 560.63 203.36
  Q 555.83 203.98 551.10 204.03
  C 546.28 204.08 542.27 205.02 537.29 204.96
  C 534.58 204.92 528.98 204.51 525.83 206.55
  Q 449.85 255.88 366.09 312.57
  Q 360.02 316.68 354.35 320.96
  A 0.51 0.50 38.5 0 0 354.45 321.82
  L 403.75 344.12
  A 3.77 3.76 46.5 0 0 406.66 344.20
  C 420.23 338.94 433.54 334.48 450.03 328.09
  A 0.60 0.56 -17.8 0 1 450.82 328.46
  Q 450.88 328.69 450.67 329.16
  Q 422.88 392.34 396.23 447.72
  Q 373.10 495.78 337.80 565.95"
/>
<path stroke="#155064" vector-effect="non-scaling-stroke" d="
  M 337.80 565.95
  L 287.67 663.48"
/>
<path stroke="#89a7d5" vector-effect="non-scaling-stroke" d="
  M 712.88 213.28
  C 703.76 223.34 692.88 234.44 685.09 242.96
  Q 656.04 274.73 626.91 304.31
  C 608.24 323.28 587.67 342.10 569.23 359.99
  Q 549.94 378.68 525.11 400.80
  Q 486.71 435.02 471.41 448.43
  Q 463.44 455.43 455.50 462.48"
/>
<path stroke="#8bb8d9" vector-effect="non-scaling-stroke" d="
  M 455.50 462.48
  Q 408.15 504.08 360.88 545.79
  Q 360.83 545.83 352.70 552.77
  Q 345.92 558.56 339.69 565.12"
/>
<path stroke="#94cedf" vector-effect="non-scaling-stroke" d="
  M 339.69 565.12
  Q 338.31 566.27 337.80 565.95"
/>
<path stroke="#2087b9" vector-effect="non-scaling-stroke" d="
  M 430.73 554.48
  C 429.94 533.92 428.04 513.98 421.81 494.30
  A 0.35 0.34 60.6 0 0 421.25 494.14
  Q 391.84 520.01 386.67 524.42
  C 378.88 531.06 371.46 537.94 364.85 543.39
  C 362.29 545.50 360.55 547.78 358.15 549.57
  Q 356.44 550.85 352.93 554.03
  Q 346.58 559.81 339.69 565.12"
/>
<path stroke="#145faf" vector-effect="non-scaling-stroke" d="
  M 526.27 458.55
  C 520.84 444.77 515.09 431.34 506.58 419.29
  A 0.34 0.34 0.0 0 0 506.07 419.23
  Q 480.60 441.62 458.15 461.64
  Q 456.55 463.07 455.50 462.48"
/>
<path stroke="#8197ae" vector-effect="non-scaling-stroke" d="
  M 250.20 750.36
  Q 250.29 749.81 251.24 751.35"
/>
<path stroke="#808184" vector-effect="non-scaling-stroke" d="
  M 251.24 751.35
  Q 252.46 757.41 254.00 762.98
  Q 263.58 797.48 274.35 835.63
  A 0.53 0.52 81.8 0 0 274.85 836.01
  L 303.57 836.01
  A 1.13 1.13 0.0 0 0 304.66 835.17
  L 337.50 714.49
  A 0.43 0.43 0.0 0 0 337.09 713.95
  L 312.92 713.95
  A 0.40 0.40 0.0 0 0 312.53 714.25
  L 288.39 805.08
  A 0.13 0.13 0.0 0 1 288.15 805.11
  Q 287.87 804.55 287.58 803.43
  Q 284.38 791.33 265.31 718.10
  C 264.63 715.46 264.63 713.98 261.79 713.94
  Q 248.08 713.76 238.02 714.01
  A 1.00 0.99 6.6 0 0 237.08 714.75
  L 212.39 805.48
  A 0.07 0.07 0.0 0 1 212.26 805.48
  Q 196.51 746.33 188.97 717.31
  Q 188.83 716.79 188.70 716.03
  C 188.28 713.57 186.48 714.00 184.55 713.97
  Q 172.63 713.79 163.32 714.16
  A 0.43 0.42 -9.0 0 0 162.92 714.70
  L 196.79 834.97
  A 1.43 1.43 0.0 0 0 198.17 836.02
  L 224.91 836.02
  A 1.40 1.40 0.0 0 0 226.24 835.06
  Q 229.44 825.40 233.18 811.98
  Q 241.75 781.22 250.20 750.36"
/>
<path stroke="#011933" vector-effect="non-scaling-stroke" d="
  M 251.24 751.35
  Q 253.56 753.80 253.89 758.21
  A 0.65 0.34 54.5 0 0 253.91 758.36
  L 274.96 833.56
  A 1.76 1.76 0.0 0 0 276.65 834.84
  L 302.96 834.84
  A 0.90 0.89 -82.3 0 0 303.82 834.18
  L 335.98 716.00
  A 0.85 0.84 -82.4 0 0 335.17 714.93
  L 314.09 714.93
  A 1.42 1.42 0.0 0 0 312.67 716.32
  Q 312.64 717.46 312.16 719.50
  Q 308.20 736.29 306.00 744.06
  Q 304.86 748.06 304.09 751.76
  Q 303.09 756.54 302.18 759.47
  Q 297.11 775.77 293.46 790.44
  C 292.28 795.19 290.46 800.16 289.73 804.88
  A 0.61 0.61 0.0 0 1 289.13 805.40
  L 287.52 805.40
  A 0.75 0.75 0.0 0 1 286.79 804.83
  L 263.62 716.02
  A 1.23 1.22 82.6 0 0 262.44 715.10
  L 239.08 715.10
  A 2.01 2.00 -83.5 0 0 237.13 716.66
  Q 234.97 726.20 234.37 728.18
  C 232.54 734.27 230.39 742.71 228.72 750.75
  Q 227.43 756.98 226.33 759.86
  Q 224.95 763.51 224.89 765.96
  A 1.96 1.92 -37.3 0 1 224.81 766.51
  L 213.54 806.00
  A 0.82 0.82 0.0 0 1 212.52 806.57
  Q 211.23 806.19 210.90 804.76
  Q 210.25 801.92 209.21 798.06
  Q 197.43 754.54 187.57 716.12
  A 1.50 1.49 -7.2 0 0 186.12 715.00
  L 165.16 715.00
  A 0.88 0.88 0.0 0 0 164.32 716.13
  Q 167.14 725.46 170.35 736.88
  Q 172.27 743.73 173.35 746.57
  Q 173.84 747.87 173.89 749.30
  A 1.47 1.23 39.9 0 0 173.94 749.58
  L 197.65 834.07
  A 1.11 1.10 -7.5 0 0 198.72 834.88
  L 223.98 834.88
  A 1.98 1.98 0.0 0 0 225.88 833.46
  Q 237.63 793.50 248.80 751.23
  Q 249.14 749.93 250.20 750.36"
/>
<path stroke="#808184" vector-effect="non-scaling-stroke" d="
  M 429.63 835.40
  A 0.87 0.87 0.0 0 0 430.45 835.99
  L 455.03 835.99
  A 0.87 0.87 0.0 0 0 455.84 834.80
  L 409.04 714.49
  A 0.87 0.87 0.0 0 0 408.22 713.94
  L 381.26 713.94
  A 0.87 0.87 0.0 0 0 380.45 714.49
  L 333.10 834.78
  A 0.87 0.87 0.0 0 0 333.91 835.97
  L 358.96 835.97
  A 0.87 0.87 0.0 0 0 359.78 835.39
  L 368.27 811.54
  A 0.87 0.87 0.0 0 1 369.09 810.96
  L 420.61 810.96
  A 0.87 0.87 0.0 0 1 421.43 811.55
  L 429.63 835.40"
/>
<path stroke="#808184" vector-effect="non-scaling-stroke" d="
  M 557.65 835.93
  A 0.57 0.57 0.0 0 0 558.22 835.36
  L 558.22 814.61
  A 0.57 0.57 0.0 0 0 557.65 814.04
  L 500.57 814.04
  A 0.57 0.57 0.0 0 1 500.00 813.47
  L 500.00 714.61
  A 0.57 0.57 0.0 0 0 499.43 714.04
  L 475.63 714.04
  A 0.57 0.57 0.0 0 0 475.06 714.61
  L 475.06 835.36
  A 0.57 0.57 0.0 0 0 475.63 835.93
  L 557.65 835.93"
/>
<path stroke="#8197ae" vector-effect="non-scaling-stroke" d="
  M 600.84 714.41
  A 0.43 0.43 0.0 0 0 600.41 713.98
  L 576.05 713.98
  A 0.43 0.43 0.0 0 0 575.62 714.41
  L 575.62 835.57
  A 0.43 0.43 0.0 0 0 576.05 836.00
  L 600.41 836.00
  A 0.43 0.43 0.0 0 0 600.84 835.57
  L 600.84 714.41"
/>
<path stroke="#8197ae" vector-effect="non-scaling-stroke" d="
  M 632.10 835.95
  L 634.17 835.94"
/>
<path stroke="#808184" vector-effect="non-scaling-stroke" d="
  M 634.17 835.94
  L 655.39 835.86
  A 0.58 0.58 0.0 0 0 655.97 835.28
  L 655.97 793.59
  A 0.39 0.38 -0.0 0 1 656.36 793.21
  L 673.54 793.21
  A 2.63 2.62 -15.9 0 1 675.77 794.45
  L 700.89 835.23
  A 1.67 1.65 73.9 0 0 702.30 836.02
  L 728.36 836.02
  A 0.29 0.28 -16.6 0 0 728.60 835.58
  L 699.74 792.04
  A 0.49 0.49 0.0 0 1 700.01 791.30
  Q 715.43 786.66 722.02 774.65
  C 729.83 760.41 728.14 740.55 716.94 728.12
  C 704.54 714.35 688.89 713.93 670.00 713.97
  Q 642.85 714.03 631.63 714.16
  A 0.60 0.60 0.0 0 0 631.04 714.76
  Q 631.20 754.28 630.80 832.50
  Q 630.77 836.51 632.10 835.95"
/>
<path stroke="#011933" vector-effect="non-scaling-stroke" d="
  M 634.17 835.94
  Q 634.48 834.97 636.00 834.93
  Q 636.55 834.92 651.05 834.84
  C 652.15 834.83 653.57 835.57 654.74 834.77
  A 0.67 0.67 0.0 0 0 655.04 834.21
  L 655.04 793.71
  A 1.53 1.52 90.0 0 1 656.56 792.18
  L 674.21 792.18
  A 2.80 2.78 74.1 0 1 676.59 793.52
  Q 689.39 814.52 700.62 832.65
  C 702.40 835.53 703.48 834.77 706.73 834.80
  Q 724.24 834.95 725.24 834.97
  A 0.91 0.91 0.0 0 0 726.01 833.56
  L 698.92 792.68
  A 1.51 1.51 0.0 0 1 699.75 790.39
  C 712.02 786.78 721.69 778.26 724.49 765.20
  C 729.27 742.96 718.75 723.07 696.28 717.12
  Q 690.87 715.69 688.90 716.06
  A 2.15 2.12 -45.4 0 1 688.16 716.07
  Q 684.34 715.43 682.77 715.37
  Q 675.69 715.12 644.98 715.03
  Q 638.11 715.01 632.58 715.21
  A 0.78 0.77 89.2 0 0 631.83 715.99
  L 632.10 835.95"
/>
<path stroke="#808184" vector-effect="non-scaling-stroke" d="
  M 801.41 838.16
  C 833.61 838.19 853.62 819.89 853.88 787.49
  Q 853.94 780.44 853.99 714.78
  A 0.71 0.71 0.0 0 0 853.28 714.07
  L 829.84 714.07
  A 0.80 0.79 -90.0 0 0 829.05 714.87
  Q 829.04 735.00 829.03 784.00
  C 829.03 794.20 828.60 803.92 820.05 810.73
  C 814.78 814.94 808.46 816.14 801.43 816.13
  C 794.40 816.12 788.08 814.91 782.82 810.69
  C 774.29 803.86 773.88 794.14 773.90 783.94
  Q 774.00 734.94 774.04 714.81
  A 0.80 0.79 -89.9 0 0 773.25 714.01
  L 749.81 713.95
  A 0.71 0.71 0.0 0 0 749.10 714.66
  Q 749.00 780.32 749.04 787.38
  C 749.23 819.77 769.20 838.12 801.41 838.16"
/>
<path stroke="#808184" vector-effect="non-scaling-stroke" d="
  M 593.80 230.16
  A 0.23 0.23 0.0 0 0 593.59 229.81
  Q 574.80 231.02 555.26 231.94
  Q 551.48 232.12 549.26 233.81
  C 537.70 242.61 525.81 253.15 516.01 264.70
  A 0.46 0.46 0.0 0 0 516.37 265.46
  Q 524.93 265.15 543.38 264.01
  C 548.89 263.67 554.34 262.82 559.76 263.14
  Q 563.35 263.36 566.36 260.37
  Q 580.23 246.65 591.81 232.79
  Q 593.17 231.16 593.80 230.16"
/>
<path stroke="#011933" vector-effect="non-scaling-stroke" d="
  M 591.45 231.41
  A 0.21 0.21 0.0 0 0 591.26 231.09
  Q 573.77 232.19 555.58 233.03
  Q 552.07 233.19 550.00 234.76
  C 539.23 242.94 528.15 252.74 519.02 263.48
  A 0.43 0.43 0.0 0 0 519.35 264.19
  Q 527.32 263.91 544.49 262.87
  C 549.62 262.56 554.70 261.77 559.74 262.07
  Q 563.08 262.28 565.89 259.50
  Q 578.81 246.75 589.60 233.86
  Q 590.87 232.34 591.45 231.41"
/>
<path stroke="#011933" vector-effect="non-scaling-stroke" d="
  M 454.25 833.68
  L 408.32 715.60
  A 0.90 0.89 -11.6 0 0 407.46 715.04
  L 396.77 715.47
  A 0.07 0.05 31.7 0 1 396.72 715.47
  L 382.60 715.02
  A 1.79 1.78 11.2 0 0 380.87 716.17
  C 376.67 727.12 374.05 734.92 370.19 744.19
  Q 363.99 759.08 357.45 776.85
  C 354.87 783.87 350.70 793.21 347.41 801.67
  Q 340.78 818.74 334.64 833.43
  A 1.04 1.03 -78.5 0 0 335.59 834.87
  L 358.50 834.87
  A 0.50 0.48 -79.7 0 0 358.96 834.54
  L 367.28 811.18
  A 2.20 2.19 -80.3 0 1 369.33 809.73
  Q 400.72 809.62 417.96 809.60
  C 420.30 809.60 422.48 809.22 422.98 811.74
  Q 423.55 814.61 424.40 816.87
  Q 427.76 825.91 430.07 833.55
  A 1.70 1.69 -10.6 0 0 431.83 834.75
  C 435.43 834.47 438.25 834.96 442.09 834.69
  Q 446.89 834.35 453.10 835.14
  A 1.08 1.08 0.0 0 0 454.25 833.68"
/>
<path stroke="#011933" vector-effect="non-scaling-stroke" d="
  M 556.51 815.39
  C 551.57 814.47 545.63 815.00 540.04 815.05
  Q 513.52 815.25 500.43 814.85
  A 1.50 1.50 0.0 0 1 498.97 813.35
  L 498.97 716.00
  A 0.85 0.85 0.0 0 0 498.12 715.15
  L 476.78 715.15
  A 0.65 0.65 0.0 0 0 476.13 715.77
  Q 476.03 718.63 476.45 721.38
  A 4.60 4.32 43.2 0 1 476.51 722.32
  C 475.98 737.74 476.70 754.62 476.53 768.25
  Q 476.17 796.05 476.53 817.33
  C 476.62 822.84 476.21 827.99 476.13 833.90
  A 0.86 0.86 0.0 0 0 476.99 834.78
  L 556.47 834.78
  A 0.73 0.72 90.0 0 0 557.19 834.05
  L 557.19 816.20
  A 0.82 0.82 0.0 0 0 556.51 815.39"
/>
<path stroke="#011933" vector-effect="non-scaling-stroke" d="
  M 801.53 837.33
  Q 816.14 837.34 827.71 831.94
  Q 847.24 822.80 851.65 799.75
  Q 852.90 793.22 852.86 788.51
  Q 852.60 756.79 853.00 716.28
  A 1.22 1.22 0.0 0 0 851.78 715.05
  L 831.10 715.05
  A 1.03 1.02 89.7 0 0 830.08 716.09
  Q 830.53 748.64 830.22 785.75
  Q 830.16 794.09 829.24 797.87
  C 825.85 811.82 815.29 817.19 801.55 817.17
  C 787.81 817.16 777.27 811.78 773.90 797.82
  Q 772.99 794.04 772.94 785.70
  Q 772.70 748.59 773.21 716.04
  A 1.03 1.02 -89.6 0 0 772.19 715.00
  L 751.51 714.96
  A 1.22 1.22 0.0 0 0 750.29 716.19
  Q 750.62 756.70 750.30 788.42
  Q 750.25 793.13 751.49 799.66
  Q 755.86 822.72 775.37 831.89
  Q 786.93 837.32 801.53 837.33"
/>
<path stroke="#8197ae" vector-effect="non-scaling-stroke" d="
  M 395.02 739.51
  Q 394.42 739.23 394.03 739.28"
/>
<path stroke="#011933" vector-effect="non-scaling-stroke" d="
  M 394.03 739.28
  Q 393.72 739.01 393.38 739.18
  A 0.31 0.29 88.0 0 0 393.25 739.33
  Q 387.93 754.68 379.89 776.10
  Q 376.23 785.83 375.65 787.01
  C 375.00 788.32 374.77 790.18 376.23 790.75
  A 1.27 1.19 -32.8 0 0 376.67 790.83
  L 412.83 790.48
  A 1.02 1.02 0.0 0 0 413.79 789.15
  Q 405.66 764.49 397.92 744.51
  C 397.43 743.26 397.15 741.67 396.51 740.23
  Q 395.93 738.95 395.02 739.51"
/>
<path stroke="#808184" vector-effect="non-scaling-stroke" d="
  M 394.03 739.28
  Q 394.00 740.39 393.64 741.42
  Q 384.38 767.78 376.14 789.09
  A 0.26 0.26 0.0 0 0 376.38 789.45
  L 412.32 789.45
  A 0.38 0.38 0.0 0 0 412.68 788.94
  L 395.02 739.51"
/>
<path stroke="#011933" vector-effect="non-scaling-stroke" d="
  M 655.04 737.25
  L 655.04 771.13
  A 1.94 1.94 0.0 0 0 656.98 773.07
  L 684.52 773.07
  A 18.86 18.04 -0.0 0 0 703.38 755.03
  L 703.38 753.35
  A 18.86 18.04 0.0 0 0 684.52 735.31
  L 656.98 735.31
  A 1.94 1.94 0.0 0 0 655.04 737.25"
/>
<path stroke="#808184" vector-effect="non-scaling-stroke" d="
  M 656.01 737.09
  L 655.95 771.05
  A 0.98 0.98 0.0 0 0 656.93 772.03
  L 683.64 772.08
  A 18.41 16.19 0.1 0 0 702.08 755.92
  L 702.08 752.38
  A 18.41 16.19 0.1 0 0 683.70 736.16
  L 656.99 736.11
  A 0.98 0.98 0.0 0 0 656.01 737.09"
/>
</g>
<path fill="#ffffff" d="
  M 1024.00 0.00
  L 1024.00 1024.00
  L 0.00 1024.00
  L 0.00 0.00
  L 1024.00 0.00
  Z
  M 286.05 665.97
  L 287.55 665.97
  Q 318.27 665.92 349.00 666.00
  Q 351.20 666.01 352.32 665.06
  Q 410.46 616.19 463.10 565.10
  Q 490.37 538.65 510.05 519.28
  A 0.55 0.55 0.0 0 1 510.90 519.39
  C 521.19 536.18 529.56 549.46 540.82 568.37
  C 565.41 609.65 586.21 643.62 609.30 678.76
  A 0.29 0.29 0.0 0 0 609.83 678.66
  Q 617.01 645.36 626.87 596.42
  Q 660.49 429.63 674.64 357.31
  C 677.27 343.89 679.16 333.23 686.01 324.00
  Q 713.68 286.74 742.11 248.22
  C 744.27 245.29 745.05 243.49 745.07 240.00
  Q 745.11 233.58 744.21 223.57
  C 743.87 219.77 744.19 215.94 743.70 212.27
  Q 743.27 209.04 742.94 204.23
  Q 740.97 174.83 735.18 145.78
  C 731.01 124.82 722.97 104.85 710.69 87.41
  A 0.33 0.32 -37.4 0 0 710.22 87.35
  Q 664.83 123.78 606.50 167.00
  Q 603.94 168.90 599.24 169.24
  Q 585.43 170.25 579.14 170.81
  C 575.83 171.11 572.61 170.88 569.56 171.41
  C 564.63 172.26 558.26 171.82 553.77 172.43
  Q 550.02 172.95 547.21 172.96
  C 541.36 172.98 537.11 173.76 530.82 173.95
  Q 524.63 174.13 518.60 175.04
  A 6.72 6.71 -66.0 0 0 515.89 176.08
  L 292.37 324.25
  A 0.46 0.46 0.0 0 0 292.43 325.05
  C 309.89 333.18 329.33 343.60 348.03 352.05
  C 365.05 359.74 380.61 367.17 396.22 373.70
  A 1.30 1.30 0.0 0 1 396.91 375.42
  C 390.20 390.92 384.24 404.27 376.92 419.22
  Q 337.98 498.78 297.80 578.09
  Q 293.53 586.51 253.25 665.73
  A 0.21 0.20 -76.5 0 0 253.43 666.03
  L 286.05 665.97
  Z
  M 250.20 750.36
  Q 250.29 749.81 251.24 751.35
  Q 252.46 757.41 254.00 762.98
  Q 263.58 797.48 274.35 835.63
  A 0.53 0.52 81.8 0 0 274.85 836.01
  L 303.57 836.01
  A 1.13 1.13 0.0 0 0 304.66 835.17
  L 337.50 714.49
  A 0.43 0.43 0.0 0 0 337.09 713.95
  L 312.92 713.95
  A 0.40 0.40 0.0 0 0 312.53 714.25
  L 288.39 805.08
  A 0.13 0.13 0.0 0 1 288.15 805.11
  Q 287.87 804.55 287.58 803.43
  Q 284.38 791.33 265.31 718.10
  C 264.63 715.46 264.63 713.98 261.79 713.94
  Q 248.08 713.76 238.02 714.01
  A 1.00 0.99 6.6 0 0 237.08 714.75
  L 212.39 805.48
  A 0.07 0.07 0.0 0 1 212.26 805.48
  Q 196.51 746.33 188.97 717.31
  Q 188.83 716.79 188.70 716.03
  C 188.28 713.57 186.48 714.00 184.55 713.97
  Q 172.63 713.79 163.32 714.16
  A 0.43 0.42 -9.0 0 0 162.92 714.70
  L 196.79 834.97
  A 1.43 1.43 0.0 0 0 198.17 836.02
  L 224.91 836.02
  A 1.40 1.40 0.0 0 0 226.24 835.06
  Q 229.44 825.40 233.18 811.98
  Q 241.75 781.22 250.20 750.36
  Z
  M 429.63 835.40
  A 0.87 0.87 0.0 0 0 430.45 835.99
  L 455.03 835.99
  A 0.87 0.87 0.0 0 0 455.84 834.80
  L 409.04 714.49
  A 0.87 0.87 0.0 0 0 408.22 713.94
  L 381.26 713.94
  A 0.87 0.87 0.0 0 0 380.45 714.49
  L 333.10 834.78
  A 0.87 0.87 0.0 0 0 333.91 835.97
  L 358.96 835.97
  A 0.87 0.87 0.0 0 0 359.78 835.39
  L 368.27 811.54
  A 0.87 0.87 0.0 0 1 369.09 810.96
  L 420.61 810.96
  A 0.87 0.87 0.0 0 1 421.43 811.55
  L 429.63 835.40
  Z
  M 557.65 835.93
  A 0.57 0.57 0.0 0 0 558.22 835.36
  L 558.22 814.61
  A 0.57 0.57 0.0 0 0 557.65 814.04
  L 500.57 814.04
  A 0.57 0.57 0.0 0 1 500.00 813.47
  L 500.00 714.61
  A 0.57 0.57 0.0 0 0 499.43 714.04
  L 475.63 714.04
  A 0.57 0.57 0.0 0 0 475.06 714.61
  L 475.06 835.36
  A 0.57 0.57 0.0 0 0 475.63 835.93
  L 557.65 835.93
  Z
  M 600.84 714.41
  A 0.43 0.43 0.0 0 0 600.41 713.98
  L 576.05 713.98
  A 0.43 0.43 0.0 0 0 575.62 714.41
  L 575.62 835.57
  A 0.43 0.43 0.0 0 0 576.05 836.00
  L 600.41 836.00
  A 0.43 0.43 0.0 0 0 600.84 835.57
  L 600.84 714.41
  Z
  M 632.10 835.95
  L 634.17 835.94
  L 655.39 835.86
  A 0.58 0.58 0.0 0 0 655.97 835.28
  L 655.97 793.59
  A 0.39 0.38 -0.0 0 1 656.36 793.21
  L 673.54 793.21
  A 2.63 2.62 -15.9 0 1 675.77 794.45
  L 700.89 835.23
  A 1.67 1.65 73.9 0 0 702.30 836.02
  L 728.36 836.02
  A 0.29 0.28 -16.6 0 0 728.60 835.58
  L 699.74 792.04
  A 0.49 0.49 0.0 0 1 700.01 791.30
  Q 715.43 786.66 722.02 774.65
  C 729.83 760.41 728.14 740.55 716.94 728.12
  C 704.54 714.35 688.89 713.93 670.00 713.97
  Q 642.85 714.03 631.63 714.16
  A 0.60 0.60 0.0 0 0 631.04 714.76
  Q 631.20 754.28 630.80 832.50
  Q 630.77 836.51 632.10 835.95
  Z
  M 801.41 838.16
  C 833.61 838.19 853.62 819.89 853.88 787.49
  Q 853.94 780.44 853.99 714.78
  A 0.71 0.71 0.0 0 0 853.28 714.07
  L 829.84 714.07
  A 0.80 0.79 -90.0 0 0 829.05 714.87
  Q 829.04 735.00 829.03 784.00
  C 829.03 794.20 828.60 803.92 820.05 810.73
  C 814.78 814.94 808.46 816.14 801.43 816.13
  C 794.40 816.12 788.08 814.91 782.82 810.69
  C 774.29 803.86 773.88 794.14 773.90 783.94
  Q 774.00 734.94 774.04 714.81
  A 0.80 0.79 -89.9 0 0 773.25 714.01
  L 749.81 713.95
  A 0.71 0.71 0.0 0 0 749.10 714.66
  Q 749.00 780.32 749.04 787.38
  C 749.23 819.77 769.20 838.12 801.41 838.16
  Z"
/>
<path fill="#000309" d="
  M 287.55 665.97
  L 287.24 665.27
  Q 287.59 665.60 287.75 665.60
  Q 292.82 665.69 304.75 665.63
  Q 307.54 665.61 309.69 663.77
  Q 311.61 665.67 315.16 665.42
  Q 319.79 665.09 319.89 665.09
  Q 333.84 665.28 349.05 665.11
  A 4.43 4.41 28.2 0 0 351.42 664.40
  Q 352.95 663.43 355.63 661.13
  Q 381.39 639.09 406.70 616.44
  Q 432.29 593.54 444.88 581.12
  Q 447.46 578.57 450.07 576.01
  C 457.86 568.38 466.07 561.26 473.45 553.84
  C 484.62 542.62 497.00 530.86 509.46 518.68
  A 1.49 1.49 0.0 0 1 511.77 518.97
  C 518.61 530.17 526.05 541.32 533.27 553.45
  Q 562.94 603.30 576.77 625.68
  C 587.83 643.57 597.87 659.29 605.74 671.10
  Q 607.28 673.42 608.41 675.58
  A 0.53 0.53 0.0 0 0 609.39 675.45
  Q 618.41 633.35 625.51 597.79
  C 630.51 572.73 635.66 547.84 640.64 523.00
  Q 646.37 494.45 661.96 415.95
  Q 675.22 349.18 676.16 344.82
  Q 679.02 331.60 686.54 321.53
  Q 709.48 290.85 711.62 287.86
  Q 721.82 273.68 738.63 251.21
  C 742.38 246.21 744.23 244.47 744.03 239.02
  C 742.92 209.19 740.34 179.89 735.09 150.89
  C 731.16 129.16 723.50 107.21 710.71 89.40
  A 0.70 0.70 0.0 0 0 709.73 89.24
  Q 706.99 91.19 706.01 92.01
  Q 694.33 101.73 681.03 112.02
  Q 652.91 133.79 645.80 139.05
  Q 639.22 143.91 630.88 150.38
  Q 618.19 160.22 608.43 167.16
  Q 604.47 169.98 601.95 170.18
  Q 592.21 170.93 590.27 171.11
  Q 580.33 171.99 568.02 172.70
  C 556.19 173.39 543.67 174.65 531.98 174.88
  Q 529.02 174.94 526.04 175.35
  Q 524.18 175.60 520.18 175.97
  A 9.41 9.32 25.1 0 0 515.76 177.55
  L 487.08 196.97
  A 1.86 0.52 -15.5 0 1 486.88 197.09
  Q 482.52 199.31 478.91 202.39
  A 5.58 5.10 -77.3 0 1 478.15 202.92
  Q 472.48 206.04 466.22 210.66
  C 463.77 212.47 460.47 214.15 458.17 215.69
  Q 438.60 228.82 422.19 239.59
  C 417.99 242.35 412.69 246.27 407.00 249.81
  Q 400.55 253.82 395.46 257.23
  Q 376.06 270.25 364.98 277.47
  Q 347.35 288.93 338.59 295.13
  Q 335.19 297.53 326.66 303.04
  C 316.37 309.69 305.33 317.64 294.77 323.52
  A 0.92 0.92 0.0 0 0 294.86 325.17
  Q 303.01 328.56 310.22 332.27
  Q 335.11 345.11 354.09 353.49
  Q 369.21 360.18 377.80 364.30
  Q 386.28 368.37 397.00 372.84
  A 1.97 1.96 22.3 0 1 398.07 375.39
  Q 391.19 392.48 384.00 407.07
  Q 379.47 416.27 373.76 428.45
  Q 369.32 437.90 363.35 449.75
  Q 346.69 482.80 320.15 536.68
  C 318.68 539.67 316.81 542.71 315.31 545.81
  Q 305.06 566.96 287.72 600.51
  Q 286.44 602.99 285.20 605.41
  Q 272.36 630.68 255.24 664.02
  A 0.76 0.76 0.0 0 0 255.92 665.13
  Q 270.28 665.00 285.14 665.20
  Q 285.54 665.21 285.79 665.38
  Q 286.19 665.66 286.05 665.97
  L 253.43 666.03
  A 0.21 0.20 -76.5 0 1 253.25 665.73
  Q 293.53 586.51 297.80 578.09
  Q 337.98 498.78 376.92 419.22
  C 384.24 404.27 390.20 390.92 396.91 375.42
  A 1.30 1.30 0.0 0 0 396.22 373.70
  C 380.61 367.17 365.05 359.74 348.03 352.05
  C 329.33 343.60 309.89 333.18 292.43 325.05
  A 0.46 0.46 0.0 0 1 292.37 324.25
  L 515.89 176.08
  A 6.72 6.71 -66.0 0 1 518.60 175.04
  Q 524.63 174.13 530.82 173.95
  C 537.11 173.76 541.36 172.98 547.21 172.96
  Q 550.02 172.95 553.77 172.43
  C 558.26 171.82 564.63 172.26 569.56 171.41
  C 572.61 170.88 575.83 171.11 579.14 170.81
  Q 585.43 170.25 599.24 169.24
  Q 603.94 168.90 606.50 167.00
  Q 664.83 123.78 710.22 87.35
  A 0.33 0.32 -37.4 0 1 710.69 87.41
  C 722.97 104.85 731.01 124.82 735.18 145.78
  Q 740.97 174.83 742.94 204.23
  Q 743.27 209.04 743.70 212.27
  C 744.19 215.94 743.87 219.77 744.21 223.57
  Q 745.11 233.58 745.07 240.00
  C 745.05 243.49 744.27 245.29 742.11 248.22
  Q 713.68 286.74 686.01 324.00
  C 679.16 333.23 677.27 343.89 674.64 357.31
  Q 660.49 429.63 626.87 596.42
  Q 617.01 645.36 609.83 678.66
  A 0.29 0.29 0.0 0 1 609.30 678.76
  C 586.21 643.62 565.41 609.65 540.82 568.37
  C 529.56 549.46 521.19 536.18 510.90 519.39
  A 0.55 0.55 0.0 0 0 510.05 519.28
  Q 490.37 538.65 463.10 565.10
  Q 410.46 616.19 352.32 665.06
  Q 351.20 666.01 349.00 666.00
  Q 318.27 665.92 287.55 665.97
  Z"
/>
<path fill="#022e5c" d="
  M 309.69 663.77
  Q 371.92 610.93 430.73 554.48
  Q 479.84 507.74 526.27 458.55
  L 558.38 422.90
  A 0.34 0.33 -27.3 0 1 558.96 423.08
  C 559.95 431.35 560.20 438.89 561.09 448.29
  Q 565.40 493.72 574.50 540.60
  C 578.44 560.85 582.89 577.92 590.54 594.95
  Q 592.31 598.88 594.48 602.33
  A 0.52 0.51 -50.9 0 0 595.40 602.23
  Q 595.88 601.00 596.14 599.63
  Q 600.00 579.23 637.28 385.02
  Q 639.69 372.43 645.27 345.00
  Q 649.88 322.28 664.14 302.17
  C 680.18 279.56 697.02 258.06 712.62 238.86
  Q 714.05 237.10 714.08 234.25
  Q 714.21 223.95 714.12 213.75
  Q 715.23 209.38 714.81 204.71
  Q 714.18 197.78 714.18 197.72
  Q 714.01 194.11 713.46 189.54
  C 713.16 187.09 713.38 184.23 713.12 182.38
  Q 711.67 172.13 711.08 163.48
  A 1.91 0.06 77.7 0 0 710.82 162.07
  Q 710.39 159.97 710.11 157.05
  C 709.49 150.32 705.74 143.17 701.80 136.33
  A 2.03 2.03 0.0 0 0 698.82 135.73
  Q 658.94 165.88 618.99 195.57
  C 616.65 197.31 614.04 198.79 611.42 198.90
  Q 598.53 199.42 588.00 200.27
  Q 573.99 201.41 561.51 202.09
  C 558.94 202.23 556.20 202.82 553.81 202.88
  Q 547.62 203.04 543.89 203.43
  C 538.02 204.04 534.57 203.80 529.26 204.21
  Q 527.36 204.36 525.85 205.34
  Q 468.16 242.90 408.17 283.02
  C 405.82 284.60 403.53 285.70 401.78 287.04
  Q 399.19 289.02 390.25 295.02
  Q 376.52 304.23 354.48 319.48
  Q 353.79 319.96 352.99 321.33
  A 0.90 0.90 0.0 0 0 353.39 322.61
  L 403.49 345.27
  A 3.75 3.75 0.0 0 0 406.35 345.37
  L 448.48 329.91
  A 0.47 0.47 0.0 0 1 449.07 330.54
  Q 430.76 371.48 429.58 374.09
  Q 412.34 412.16 387.22 463.98
  Q 382.70 473.29 357.50 523.99
  Q 355.68 527.64 355.50 527.92
  C 353.46 531.12 352.27 534.90 350.73 537.86
  C 342.27 554.19 334.88 570.32 326.75 586.12
  Q 304.29 629.76 287.62 662.09
  Q 287.03 663.25 287.67 663.48
  L 287.24 665.27
  L 287.55 665.97
  L 286.05 665.97
  Q 286.19 665.66 285.79 665.38
  Q 285.54 665.21 285.14 665.20
  Q 270.28 665.00 255.92 665.13
  A 0.76 0.76 0.0 0 1 255.24 664.02
  Q 272.36 630.68 285.20 605.41
  Q 286.44 602.99 287.72 600.51
  Q 305.06 566.96 315.31 545.81
  C 316.81 542.71 318.68 539.67 320.15 536.68
  Q 346.69 482.80 363.35 449.75
  Q 369.32 437.90 373.76 428.45
  Q 379.47 416.27 384.00 407.07
  Q 391.19 392.48 398.07 375.39
  A 1.97 1.96 22.3 0 0 397.00 372.84
  Q 386.28 368.37 377.80 364.30
  Q 369.21 360.18 354.09 353.49
  Q 335.11 345.11 310.22 332.27
  Q 303.01 328.56 294.86 325.17
  A 0.92 0.92 0.0 0 1 294.77 323.52
  C 305.33 317.64 316.37 309.69 326.66 303.04
  Q 335.19 297.53 338.59 295.13
  Q 347.35 288.93 364.98 277.47
  Q 376.06 270.25 395.46 257.23
  Q 400.55 253.82 407.00 249.81
  C 412.69 246.27 417.99 242.35 422.19 239.59
  Q 438.60 228.82 458.17 215.69
  C 460.47 214.15 463.77 212.47 466.22 210.66
  Q 472.48 206.04 478.15 202.92
  A 5.58 5.10 -77.3 0 0 478.91 202.39
  Q 482.52 199.31 486.88 197.09
  A 1.86 0.52 -15.5 0 0 487.08 196.97
  L 515.76 177.55
  A 9.41 9.32 25.1 0 1 520.18 175.97
  Q 524.18 175.60 526.04 175.35
  Q 529.02 174.94 531.98 174.88
  C 543.67 174.65 556.19 173.39 568.02 172.70
  Q 580.33 171.99 590.27 171.11
  Q 592.21 170.93 601.95 170.18
  Q 604.47 169.98 608.43 167.16
  Q 618.19 160.22 630.88 150.38
  Q 639.22 143.91 645.80 139.05
  Q 652.91 133.79 681.03 112.02
  Q 694.33 101.73 706.01 92.01
  Q 706.99 91.19 709.73 89.24
  A 0.70 0.70 0.0 0 1 710.71 89.40
  C 723.50 107.21 731.16 129.16 735.09 150.89
  C 740.34 179.89 742.92 209.19 744.03 239.02
  C 744.23 244.47 742.38 246.21 738.63 251.21
  Q 721.82 273.68 711.62 287.86
  Q 709.48 290.85 686.54 321.53
  Q 679.02 331.60 676.16 344.82
  Q 675.22 349.18 661.96 415.95
  Q 646.37 494.45 640.64 523.00
  C 635.66 547.84 630.51 572.73 625.51 597.79
  Q 618.41 633.35 609.39 675.45
  A 0.53 0.53 0.0 0 1 608.41 675.58
  Q 607.28 673.42 605.74 671.10
  C 597.87 659.29 587.83 643.57 576.77 625.68
  Q 562.94 603.30 533.27 553.45
  C 526.05 541.32 518.61 530.17 511.77 518.97
  A 1.49 1.49 0.0 0 0 509.46 518.68
  C 497.00 530.86 484.62 542.62 473.45 553.84
  C 466.07 561.26 457.86 568.38 450.07 576.01
  Q 447.46 578.57 444.88 581.12
  Q 432.29 593.54 406.70 616.44
  Q 381.39 639.09 355.63 661.13
  Q 352.95 663.43 351.42 664.40
  A 4.43 4.41 28.2 0 1 349.05 665.11
  Q 333.84 665.28 319.89 665.09
  Q 319.79 665.09 315.16 665.42
  Q 311.61 665.67 309.69 663.77
  Z"
/>
<path fill="#000309" d="
  M 714.12 213.75
  Q 713.34 213.61 712.88 213.28
  Q 714.08 212.29 713.87 209.53
  Q 711.53 179.40 709.16 160.14
  Q 707.60 147.50 700.61 136.47
  A 0.86 0.86 0.0 0 0 699.31 136.28
  Q 696.52 138.70 693.78 140.77
  Q 643.72 178.47 617.99 197.46
  Q 615.00 199.67 612.75 199.75
  Q 604.18 200.09 599.46 200.62
  C 595.45 201.08 592.13 200.78 588.57 201.35
  C 583.73 202.11 577.88 201.71 573.35 202.48
  C 568.95 203.22 565.06 202.78 560.63 203.36
  Q 555.83 203.98 551.10 204.03
  C 546.28 204.08 542.27 205.02 537.29 204.96
  C 534.58 204.92 528.98 204.51 525.83 206.55
  Q 449.85 255.88 366.09 312.57
  Q 360.02 316.68 354.35 320.96
  A 0.51 0.50 38.5 0 0 354.45 321.82
  L 403.75 344.12
  A 3.77 3.76 46.5 0 0 406.66 344.20
  C 420.23 338.94 433.54 334.48 450.03 328.09
  A 0.60 0.56 -17.8 0 1 450.82 328.46
  Q 450.88 328.69 450.67 329.16
  Q 422.88 392.34 396.23 447.72
  Q 373.10 495.78 337.80 565.95
  L 287.67 663.48
  Q 287.03 663.25 287.62 662.09
  Q 304.29 629.76 326.75 586.12
  C 334.88 570.32 342.27 554.19 350.73 537.86
  C 352.27 534.90 353.46 531.12 355.50 527.92
  Q 355.68 527.64 357.50 523.99
  Q 382.70 473.29 387.22 463.98
  Q 412.34 412.16 429.58 374.09
  Q 430.76 371.48 449.07 330.54
  A 0.47 0.47 0.0 0 0 448.48 329.91
  L 406.35 345.37
  A 3.75 3.75 0.0 0 1 403.49 345.27
  L 353.39 322.61
  A 0.90 0.90 0.0 0 1 352.99 321.33
  Q 353.79 319.96 354.48 319.48
  Q 376.52 304.23 390.25 295.02
  Q 399.19 289.02 401.78 287.04
  C 403.53 285.70 405.82 284.60 408.17 283.02
  Q 468.16 242.90 525.85 205.34
  Q 527.36 204.36 529.26 204.21
  C 534.57 203.80 538.02 204.04 543.89 203.43
  Q 547.62 203.04 553.81 202.88
  C 556.20 202.82 558.94 202.23 561.51 202.09
  Q 573.99 201.41 588.00 200.27
  Q 598.53 199.42 611.42 198.90
  C 614.04 198.79 616.65 197.31 618.99 195.57
  Q 658.94 165.88 698.82 135.73
  A 2.03 2.03 0.0 0 1 701.80 136.33
  C 705.74 143.17 709.49 150.32 710.11 157.05
  Q 710.39 159.97 710.82 162.07
  A 1.91 0.06 77.7 0 1 711.08 163.48
  Q 711.67 172.13 713.12 182.38
  C 713.38 184.23 713.16 187.09 713.46 189.54
  Q 714.01 194.11 714.18 197.72
  Q 714.18 197.78 714.81 204.71
  Q 715.23 209.38 714.12 213.75
  Z"
/>
<path fill="#ffffff" d="
  M 712.88 213.28
  C 703.76 223.34 692.88 234.44 685.09 242.96
  Q 656.04 274.73 626.91 304.31
  C 608.24 323.28 587.67 342.10 569.23 359.99
  Q 549.94 378.68 525.11 400.80
  Q 486.71 435.02 471.41 448.43
  Q 463.44 455.43 455.50 462.48
  Q 408.15 504.08 360.88 545.79
  Q 360.83 545.83 352.70 552.77
  Q 345.92 558.56 339.69 565.12
  Q 338.31 566.27 337.80 565.95
  Q 373.10 495.78 396.23 447.72
  Q 422.88 392.34 450.67 329.16
  Q 450.88 328.69 450.82 328.46
  A 0.60 0.56 -17.8 0 0 450.03 328.09
  C 433.54 334.48 420.23 338.94 406.66 344.20
  A 3.77 3.76 46.5 0 1 403.75 344.12
  L 354.45 321.82
  A 0.51 0.50 38.5 0 1 354.35 320.96
  Q 360.02 316.68 366.09 312.57
  Q 449.85 255.88 525.83 206.55
  C 528.98 204.51 534.58 204.92 537.29 204.96
  C 542.27 205.02 546.28 204.08 551.10 204.03
  Q 555.83 203.98 560.63 203.36
  C 565.06 202.78 568.95 203.22 573.35 202.48
  C 577.88 201.71 583.73 202.11 588.57 201.35
  C 592.13 200.78 595.45 201.08 599.46 200.62
  Q 604.18 200.09 612.75 199.75
  Q 615.00 199.67 617.99 197.46
  Q 643.72 178.47 693.78 140.77
  Q 696.52 138.70 699.31 136.28
  A 0.86 0.86 0.0 0 1 700.61 136.47
  Q 707.60 147.50 709.16 160.14
  Q 711.53 179.40 713.87 209.53
  Q 714.08 212.29 712.88 213.28
  Z
  M 593.80 230.16
  A 0.23 0.23 0.0 0 0 593.59 229.81
  Q 574.80 231.02 555.26 231.94
  Q 551.48 232.12 549.26 233.81
  C 537.70 242.61 525.81 253.15 516.01 264.70
  A 0.46 0.46 0.0 0 0 516.37 265.46
  Q 524.93 265.15 543.38 264.01
  C 548.89 263.67 554.34 262.82 559.76 263.14
  Q 563.35 263.36 566.36 260.37
  Q 580.23 246.65 591.81 232.79
  Q 593.17 231.16 593.80 230.16
  Z"
/>
<path fill="#124eaa" d="
  M 712.88 213.28
  Q 713.34 213.61 714.12 213.75
  Q 714.21 223.95 714.08 234.25
  Q 714.05 237.10 712.62 238.86
  C 697.02 258.06 680.18 279.56 664.14 302.17
  Q 649.88 322.28 645.27 345.00
  Q 639.69 372.43 637.28 385.02
  Q 600.00 579.23 596.14 599.63
  Q 595.88 601.00 595.40 602.23
  A 0.52 0.51 -50.9 0 1 594.48 602.33
  Q 592.31 598.88 590.54 594.95
  C 582.89 577.92 578.44 560.85 574.50 540.60
  Q 565.40 493.72 561.09 448.29
  C 560.20 438.89 559.95 431.35 558.96 423.08
  A 0.34 0.33 -27.3 0 0 558.38 422.90
  L 526.27 458.55
  C 520.84 444.77 515.09 431.34 506.58 419.29
  A 0.34 0.34 0.0 0 0 506.07 419.23
  Q 480.60 441.62 458.15 461.64
  Q 456.55 463.07 455.50 462.48
  Q 463.44 455.43 471.41 448.43
  Q 486.71 435.02 525.11 400.80
  Q 549.94 378.68 569.23 359.99
  C 587.67 342.10 608.24 323.28 626.91 304.31
  Q 656.04 274.73 685.09 242.96
  C 692.88 234.44 703.76 223.34 712.88 213.28
  Z"
/>
<path fill="#000309" d="
  M 593.80 230.16
  Q 593.17 231.16 591.81 232.79
  Q 580.23 246.65 566.36 260.37
  Q 563.35 263.36 559.76 263.14
  C 554.34 262.82 548.89 263.67 543.38 264.01
  Q 524.93 265.15 516.37 265.46
  A 0.46 0.46 0.0 0 1 516.01 264.70
  C 525.81 253.15 537.70 242.61 549.26 233.81
  Q 551.48 232.12 555.26 231.94
  Q 574.80 231.02 593.59 229.81
  A 0.23 0.23 0.0 0 1 593.80 230.16
  Z
  M 591.45 231.41
  A 0.21 0.21 0.0 0 0 591.26 231.09
  Q 573.77 232.19 555.58 233.03
  Q 552.07 233.19 550.00 234.76
  C 539.23 242.94 528.15 252.74 519.02 263.48
  A 0.43 0.43 0.0 0 0 519.35 264.19
  Q 527.32 263.91 544.49 262.87
  C 549.62 262.56 554.70 261.77 559.74 262.07
  Q 563.08 262.28 565.89 259.50
  Q 578.81 246.75 589.60 233.86
  Q 590.87 232.34 591.45 231.41
  Z"
/>
<path fill="#022e5c" d="
  M 591.45 231.41
  Q 590.87 232.34 589.60 233.86
  Q 578.81 246.75 565.89 259.50
  Q 563.08 262.28 559.74 262.07
  C 554.70 261.77 549.62 262.56 544.49 262.87
  Q 527.32 263.91 519.35 264.19
  A 0.43 0.43 0.0 0 1 519.02 263.48
  C 528.15 252.74 539.23 242.94 550.00 234.76
  Q 552.07 233.19 555.58 233.03
  Q 573.77 232.19 591.26 231.09
  A 0.21 0.21 0.0 0 1 591.45 231.41
  Z"
/>
<path fill="#1670b3" d="
  M 526.27 458.55
  Q 479.84 507.74 430.73 554.48
  C 429.94 533.92 428.04 513.98 421.81 494.30
  A 0.35 0.34 60.6 0 0 421.25 494.14
  Q 391.84 520.01 386.67 524.42
  C 378.88 531.06 371.46 537.94 364.85 543.39
  C 362.29 545.50 360.55 547.78 358.15 549.57
  Q 356.44 550.85 352.93 554.03
  Q 346.58 559.81 339.69 565.12
  Q 345.92 558.56 352.70 552.77
  Q 360.83 545.83 360.88 545.79
  Q 408.15 504.08 455.50 462.48
  Q 456.55 463.07 458.15 461.64
  Q 480.60 441.62 506.07 419.23
  A 0.34 0.34 0.0 0 1 506.58 419.29
  C 515.09 431.34 520.84 444.77 526.27 458.55
  Z"
/>
<path fill="#299dbe" d="
  M 430.73 554.48
  Q 371.92 610.93 309.69 663.77
  Q 307.54 665.61 304.75 665.63
  Q 292.82 665.69 287.75 665.60
  Q 287.59 665.60 287.24 665.27
  L 287.67 663.48
  L 337.80 565.95
  Q 338.31 566.27 339.69 565.12
  Q 346.58 559.81 352.93 554.03
  Q 356.44 550.85 358.15 549.57
  C 360.55 547.78 362.29 545.50 364.85 543.39
  C 371.46 537.94 378.88 531.06 386.67 524.42
  Q 391.84 520.01 421.25 494.14
  A 0.35 0.34 60.6 0 1 421.81 494.30
  C 428.04 513.98 429.94 533.92 430.73 554.48
  Z"
/>
<path fill="#000309" d="
  M 251.24 751.35
  Q 253.56 753.80 253.89 758.21
  A 0.65 0.34 54.5 0 0 253.91 758.36
  L 274.96 833.56
  A 1.76 1.76 0.0 0 0 276.65 834.84
  L 302.96 834.84
  A 0.90 0.89 -82.3 0 0 303.82 834.18
  L 335.98 716.00
  A 0.85 0.84 -82.4 0 0 335.17 714.93
  L 314.09 714.93
  A 1.42 1.42 0.0 0 0 312.67 716.32
  Q 312.64 717.46 312.16 719.50
  Q 308.20 736.29 306.00 744.06
  Q 304.86 748.06 304.09 751.76
  Q 303.09 756.54 302.18 759.47
  Q 297.11 775.77 293.46 790.44
  C 292.28 795.19 290.46 800.16 289.73 804.88
  A 0.61 0.61 0.0 0 1 289.13 805.40
  L 287.52 805.40
  A 0.75 0.75 0.0 0 1 286.79 804.83
  L 263.62 716.02
  A 1.23 1.22 82.6 0 0 262.44 715.10
  L 239.08 715.10
  A 2.01 2.00 -83.5 0 0 237.13 716.66
  Q 234.97 726.20 234.37 728.18
  C 232.54 734.27 230.39 742.71 228.72 750.75
  Q 227.43 756.98 226.33 759.86
  Q 224.95 763.51 224.89 765.96
  A 1.96 1.92 -37.3 0 1 224.81 766.51
  L 213.54 806.00
  A 0.82 0.82 0.0 0 1 212.52 806.57
  Q 211.23 806.19 210.90 804.76
  Q 210.25 801.92 209.21 798.06
  Q 197.43 754.54 187.57 716.12
  A 1.50 1.49 -7.2 0 0 186.12 715.00
  L 165.16 715.00
  A 0.88 0.88 0.0 0 0 164.32 716.13
  Q 167.14 725.46 170.35 736.88
  Q 172.27 743.73 173.35 746.57
  Q 173.84 747.87 173.89 749.30
  A 1.47 1.23 39.9 0 0 173.94 749.58
  L 197.65 834.07
  A 1.11 1.10 -7.5 0 0 198.72 834.88
  L 223.98 834.88
  A 1.98 1.98 0.0 0 0 225.88 833.46
  Q 237.63 793.50 248.80 751.23
  Q 249.14 749.93 250.20 750.36
  Q 241.75 781.22 233.18 811.98
  Q 229.44 825.40 226.24 835.06
  A 1.40 1.40 0.0 0 1 224.91 836.02
  L 198.17 836.02
  A 1.43 1.43 0.0 0 1 196.79 834.97
  L 162.92 714.70
  A 0.43 0.42 -9.0 0 1 163.32 714.16
  Q 172.63 713.79 184.55 713.97
  C 186.48 714.00 188.28 713.57 188.70 716.03
  Q 188.83 716.79 188.97 717.31
  Q 196.51 746.33 212.26 805.48
  A 0.07 0.07 0.0 0 0 212.39 805.48
  L 237.08 714.75
  A 1.00 0.99 6.6 0 1 238.02 714.01
  Q 248.08 713.76 261.79 713.94
  C 264.63 713.98 264.63 715.46 265.31 718.10
  Q 284.38 791.33 287.58 803.43
  Q 287.87 804.55 288.15 805.11
  A 0.13 0.13 0.0 0 0 288.39 805.08
  L 312.53 714.25
  A 0.40 0.40 0.0 0 1 312.92 713.95
  L 337.09 713.95
  A 0.43 0.43 0.0 0 1 337.50 714.49
  L 304.66 835.17
  A 1.13 1.13 0.0 0 1 303.57 836.01
  L 274.85 836.01
  A 0.53 0.52 81.8 0 1 274.35 835.63
  Q 263.58 797.48 254.00 762.98
  Q 252.46 757.41 251.24 751.35
  Z"
/>
<path fill="#000309" d="
  M 429.63 835.40
  L 421.43 811.55
  A 0.87 0.87 0.0 0 0 420.61 810.96
  L 369.09 810.96
  A 0.87 0.87 0.0 0 0 368.27 811.54
  L 359.78 835.39
  A 0.87 0.87 0.0 0 1 358.96 835.97
  L 333.91 835.97
  A 0.87 0.87 0.0 0 1 333.10 834.78
  L 380.45 714.49
  A 0.87 0.87 0.0 0 1 381.26 713.94
  L 408.22 713.94
  A 0.87 0.87 0.0 0 1 409.04 714.49
  L 455.84 834.80
  A 0.87 0.87 0.0 0 1 455.03 835.99
  L 430.45 835.99
  A 0.87 0.87 0.0 0 1 429.63 835.40
  Z
  M 454.25 833.68
  L 408.32 715.60
  A 0.90 0.89 -11.6 0 0 407.46 715.04
  L 396.77 715.47
  A 0.07 0.05 31.7 0 1 396.72 715.47
  L 382.60 715.02
  A 1.79 1.78 11.2 0 0 380.87 716.17
  C 376.67 727.12 374.05 734.92 370.19 744.19
  Q 363.99 759.08 357.45 776.85
  C 354.87 783.87 350.70 793.21 347.41 801.67
  Q 340.78 818.74 334.64 833.43
  A 1.04 1.03 -78.5 0 0 335.59 834.87
  L 358.50 834.87
  A 0.50 0.48 -79.7 0 0 358.96 834.54
  L 367.28 811.18
  A 2.20 2.19 -80.3 0 1 369.33 809.73
  Q 400.72 809.62 417.96 809.60
  C 420.30 809.60 422.48 809.22 422.98 811.74
  Q 423.55 814.61 424.40 816.87
  Q 427.76 825.91 430.07 833.55
  A 1.70 1.69 -10.6 0 0 431.83 834.75
  C 435.43 834.47 438.25 834.96 442.09 834.69
  Q 446.89 834.35 453.10 835.14
  A 1.08 1.08 0.0 0 0 454.25 833.68
  Z"
/>
<path fill="#000309" d="
  M 557.65 835.93
  L 475.63 835.93
  A 0.57 0.57 0.0 0 1 475.06 835.36
  L 475.06 714.61
  A 0.57 0.57 0.0 0 1 475.63 714.04
  L 499.43 714.04
  A 0.57 0.57 0.0 0 1 500.00 714.61
  L 500.00 813.47
  A 0.57 0.57 0.0 0 0 500.57 814.04
  L 557.65 814.04
  A 0.57 0.57 0.0 0 1 558.22 814.61
  L 558.22 835.36
  A 0.57 0.57 0.0 0 1 557.65 835.93
  Z
  M 556.51 815.39
  C 551.57 814.47 545.63 815.00 540.04 815.05
  Q 513.52 815.25 500.43 814.85
  A 1.50 1.50 0.0 0 1 498.97 813.35
  L 498.97 716.00
  A 0.85 0.85 0.0 0 0 498.12 715.15
  L 476.78 715.15
  A 0.65 0.65 0.0 0 0 476.13 715.77
  Q 476.03 718.63 476.45 721.38
  A 4.60 4.32 43.2 0 1 476.51 722.32
  C 475.98 737.74 476.70 754.62 476.53 768.25
  Q 476.17 796.05 476.53 817.33
  C 476.62 822.84 476.21 827.99 476.13 833.90
  A 0.86 0.86 0.0 0 0 476.99 834.78
  L 556.47 834.78
  A 0.73 0.72 90.0 0 0 557.19 834.05
  L 557.19 816.20
  A 0.82 0.82 0.0 0 0 556.51 815.39
  Z"
/>
<rect fill="#022e5c" x="575.62" y="713.98" width="25.22" height="122.02" rx="0.43"/>
<path fill="#000309" d="
  M 634.17 835.94
  Q 634.48 834.97 636.00 834.93
  Q 636.55 834.92 651.05 834.84
  C 652.15 834.83 653.57 835.57 654.74 834.77
  A 0.67 0.67 0.0 0 0 655.04 834.21
  L 655.04 793.71
  A 1.53 1.52 90.0 0 1 656.56 792.18
  L 674.21 792.18
  A 2.80 2.78 74.1 0 1 676.59 793.52
  Q 689.39 814.52 700.62 832.65
  C 702.40 835.53 703.48 834.77 706.73 834.80
  Q 724.24 834.95 725.24 834.97
  A 0.91 0.91 0.0 0 0 726.01 833.56
  L 698.92 792.68
  A 1.51 1.51 0.0 0 1 699.75 790.39
  C 712.02 786.78 721.69 778.26 724.49 765.20
  C 729.27 742.96 718.75 723.07 696.28 717.12
  Q 690.87 715.69 688.90 716.06
  A 2.15 2.12 -45.4 0 1 688.16 716.07
  Q 684.34 715.43 682.77 715.37
  Q 675.69 715.12 644.98 715.03
  Q 638.11 715.01 632.58 715.21
  A 0.78 0.77 89.2 0 0 631.83 715.99
  L 632.10 835.95
  Q 630.77 836.51 630.80 832.50
  Q 631.20 754.28 631.04 714.76
  A 0.60 0.60 0.0 0 1 631.63 714.16
  Q 642.85 714.03 670.00 713.97
  C 688.89 713.93 704.54 714.35 716.94 728.12
  C 728.14 740.55 729.83 760.41 722.02 774.65
  Q 715.43 786.66 700.01 791.30
  A 0.49 0.49 0.0 0 0 699.74 792.04
  L 728.60 835.58
  A 0.29 0.28 -16.6 0 1 728.36 836.02
  L 702.30 836.02
  A 1.67 1.65 73.9 0 1 700.89 835.23
  L 675.77 794.45
  A 2.63 2.62 -15.9 0 0 673.54 793.21
  L 656.36 793.21
  A 0.39 0.38 0.0 0 0 655.97 793.59
  L 655.97 835.28
  A 0.58 0.58 0.0 0 1 655.39 835.86
  L 634.17 835.94
  Z"
/>
<path fill="#000309" d="
  M 801.43 816.13
  C 808.46 816.14 814.78 814.94 820.05 810.73
  C 828.60 803.92 829.03 794.20 829.03 784.00
  Q 829.04 735.00 829.05 714.87
  A 0.80 0.79 -90.0 0 1 829.84 714.07
  L 853.28 714.07
  A 0.71 0.71 0.0 0 1 853.99 714.78
  Q 853.94 780.44 853.88 787.49
  C 853.62 819.89 833.61 838.19 801.41 838.16
  C 769.20 838.12 749.23 819.77 749.04 787.38
  Q 749.00 780.32 749.10 714.66
  A 0.71 0.71 0.0 0 1 749.81 713.95
  L 773.25 714.01
  A 0.80 0.79 -89.9 0 1 774.04 714.81
  Q 774.00 734.94 773.90 783.94
  C 773.88 794.14 774.29 803.86 782.82 810.69
  C 788.08 814.91 794.40 816.12 801.43 816.13
  Z
  M 801.53 837.33
  Q 816.14 837.34 827.71 831.94
  Q 847.24 822.80 851.65 799.75
  Q 852.90 793.22 852.86 788.51
  Q 852.60 756.79 853.00 716.28
  A 1.22 1.22 0.0 0 0 851.78 715.05
  L 831.10 715.05
  A 1.03 1.02 89.7 0 0 830.08 716.09
  Q 830.53 748.64 830.22 785.75
  Q 830.16 794.09 829.24 797.87
  C 825.85 811.82 815.29 817.19 801.55 817.17
  C 787.81 817.16 777.27 811.78 773.90 797.82
  Q 772.99 794.04 772.94 785.70
  Q 772.70 748.59 773.21 716.04
  A 1.03 1.02 -89.6 0 0 772.19 715.00
  L 751.51 714.96
  A 1.22 1.22 0.0 0 0 750.29 716.19
  Q 750.62 756.70 750.30 788.42
  Q 750.25 793.13 751.49 799.66
  Q 755.86 822.72 775.37 831.89
  Q 786.93 837.32 801.53 837.33
  Z"
/>
<path fill="#022e5c" d="
  M 251.24 751.35
  Q 250.29 749.81 250.20 750.36
  Q 249.14 749.93 248.80 751.23
  Q 237.63 793.50 225.88 833.46
  A 1.98 1.98 0.0 0 1 223.98 834.88
  L 198.72 834.88
  A 1.11 1.10 -7.5 0 1 197.65 834.07
  L 173.94 749.58
  A 1.47 1.23 39.9 0 1 173.89 749.30
  Q 173.84 747.87 173.35 746.57
  Q 172.27 743.73 170.35 736.88
  Q 167.14 725.46 164.32 716.13
  A 0.88 0.88 0.0 0 1 165.16 715.00
  L 186.12 715.00
  A 1.50 1.49 -7.2 0 1 187.57 716.12
  Q 197.43 754.54 209.21 798.06
  Q 210.25 801.92 210.90 804.76
  Q 211.23 806.19 212.52 806.57
  A 0.82 0.82 0.0 0 0 213.54 806.00
  L 224.81 766.51
  A 1.96 1.92 -37.3 0 0 224.89 765.96
  Q 224.95 763.51 226.33 759.86
  Q 227.43 756.98 228.72 750.75
  C 230.39 742.71 232.54 734.27 234.37 728.18
  Q 234.97 726.20 237.13 716.66
  A 2.01 2.00 -83.5 0 1 239.08 715.10
  L 262.44 715.10
  A 1.23 1.22 82.6 0 1 263.62 716.02
  L 286.79 804.83
  A 0.75 0.75 0.0 0 0 287.52 805.40
  L 289.13 805.40
  A 0.61 0.61 0.0 0 0 289.73 804.88
  C 290.46 800.16 292.28 795.19 293.46 790.44
  Q 297.11 775.77 302.18 759.47
  Q 303.09 756.54 304.09 751.76
  Q 304.86 748.06 306.00 744.06
  Q 308.20 736.29 312.16 719.50
  Q 312.64 717.46 312.67 716.32
  A 1.42 1.42 0.0 0 1 314.09 714.93
  L 335.17 714.93
  A 0.85 0.84 -82.4 0 1 335.98 716.00
  L 303.82 834.18
  A 0.90 0.89 -82.3 0 1 302.96 834.84
  L 276.65 834.84
  A 1.76 1.76 0.0 0 1 274.96 833.56
  L 253.91 758.36
  A 0.65 0.34 54.5 0 1 253.89 758.21
  Q 253.56 753.80 251.24 751.35
  Z"
/>
<path fill="#022e5c" d="
  M 454.25 833.68
  A 1.08 1.08 0.0 0 1 453.10 835.14
  Q 446.89 834.35 442.09 834.69
  C 438.25 834.96 435.43 834.47 431.83 834.75
  A 1.70 1.69 -10.6 0 1 430.07 833.55
  Q 427.76 825.91 424.40 816.87
  Q 423.55 814.61 422.98 811.74
  C 422.48 809.22 420.30 809.60 417.96 809.60
  Q 400.72 809.62 369.33 809.73
  A 2.20 2.19 -80.3 0 0 367.28 811.18
  L 358.96 834.54
  A 0.50 0.48 -79.7 0 1 358.50 834.87
  L 335.59 834.87
  A 1.04 1.03 -78.5 0 1 334.64 833.43
  Q 340.78 818.74 347.41 801.67
  C 350.70 793.21 354.87 783.87 357.45 776.85
  Q 363.99 759.08 370.19 744.19
  C 374.05 734.92 376.67 727.12 380.87 716.17
  A 1.79 1.78 11.2 0 1 382.60 715.02
  L 396.72 715.47
  A 0.07 0.05 31.7 0 0 396.77 715.47
  L 407.46 715.04
  A 0.90 0.89 -11.6 0 1 408.32 715.60
  L 454.25 833.68
  Z
  M 395.02 739.51
  Q 394.42 739.23 394.03 739.28
  Q 393.72 739.01 393.38 739.18
  A 0.31 0.29 88.0 0 0 393.25 739.33
  Q 387.93 754.68 379.89 776.10
  Q 376.23 785.83 375.65 787.01
  C 375.00 788.32 374.77 790.18 376.23 790.75
  A 1.27 1.19 -32.8 0 0 376.67 790.83
  L 412.83 790.48
  A 1.02 1.02 0.0 0 0 413.79 789.15
  Q 405.66 764.49 397.92 744.51
  C 397.43 743.26 397.15 741.67 396.51 740.23
  Q 395.93 738.95 395.02 739.51
  Z"
/>
<path fill="#022e5c" d="
  M 557.19 816.20
  L 557.19 834.05
  A 0.73 0.72 90.0 0 1 556.47 834.78
  L 476.99 834.78
  A 0.86 0.86 0.0 0 1 476.13 833.90
  C 476.21 827.99 476.62 822.84 476.53 817.33
  Q 476.17 796.05 476.53 768.25
  C 476.70 754.62 475.98 737.74 476.51 722.32
  A 4.60 4.32 43.2 0 0 476.45 721.38
  Q 476.03 718.63 476.13 715.77
  A 0.65 0.65 0.0 0 1 476.78 715.15
  L 498.12 715.15
  A 0.85 0.85 0.0 0 1 498.97 716.00
  L 498.97 813.35
  A 1.50 1.50 0.0 0 0 500.43 814.85
  Q 513.52 815.25 540.04 815.05
  C 545.63 815.00 551.57 814.47 556.51 815.39
  A 0.82 0.82 0.0 0 1 557.19 816.20
  Z"
/>
<path fill="#022e5c" d="
  M 634.17 835.94
  L 632.10 835.95
  L 631.83 715.99
  A 0.78 0.77 89.2 0 1 632.58 715.21
  Q 638.11 715.01 644.98 715.03
  Q 675.69 715.12 682.77 715.37
  Q 684.34 715.43 688.16 716.07
  A 2.15 2.12 -45.4 0 0 688.90 716.06
  Q 690.87 715.69 696.28 717.12
  C 718.75 723.07 729.27 742.96 724.49 765.20
  C 721.69 778.26 712.02 786.78 699.75 790.39
  A 1.51 1.51 0.0 0 0 698.92 792.68
  L 726.01 833.56
  A 0.91 0.91 0.0 0 1 725.24 834.97
  Q 724.24 834.95 706.73 834.80
  C 703.48 834.77 702.40 835.53 700.62 832.65
  Q 689.39 814.52 676.59 793.52
  A 2.80 2.78 74.1 0 0 674.21 792.18
  L 656.56 792.18
  A 1.53 1.52 -90.0 0 0 655.04 793.71
  L 655.04 834.21
  A 0.67 0.67 0.0 0 1 654.74 834.77
  C 653.57 835.57 652.15 834.83 651.05 834.84
  Q 636.55 834.92 636.00 834.93
  Q 634.48 834.97 634.17 835.94
  Z
  M 655.04 737.25
  L 655.04 771.13
  A 1.94 1.94 0.0 0 0 656.98 773.07
  L 684.52 773.07
  A 18.86 18.04 -0.0 0 0 703.38 755.03
  L 703.38 753.35
  A 18.86 18.04 0.0 0 0 684.52 735.31
  L 656.98 735.31
  A 1.94 1.94 0.0 0 0 655.04 737.25
  Z"
/>
<path fill="#022e5c" d="
  M 801.55 817.17
  C 815.29 817.19 825.85 811.82 829.24 797.87
  Q 830.16 794.09 830.22 785.75
  Q 830.53 748.64 830.08 716.09
  A 1.03 1.02 89.7 0 1 831.10 715.05
  L 851.78 715.05
  A 1.22 1.22 0.0 0 1 853.00 716.28
  Q 852.60 756.79 852.86 788.51
  Q 852.90 793.22 851.65 799.75
  Q 847.24 822.80 827.71 831.94
  Q 816.14 837.34 801.53 837.33
  Q 786.93 837.32 775.37 831.89
  Q 755.86 822.72 751.49 799.66
  Q 750.25 793.13 750.30 788.42
  Q 750.62 756.70 750.29 716.19
  A 1.22 1.22 0.0 0 1 751.51 714.96
  L 772.19 715.00
  A 1.03 1.02 -89.6 0 1 773.21 716.04
  Q 772.70 748.59 772.94 785.70
  Q 772.99 794.04 773.90 797.82
  C 777.27 811.78 787.81 817.16 801.55 817.17
  Z"
/>
<path fill="#000309" d="
  M 655.04 737.25
  A 1.94 1.94 0.0 0 1 656.98 735.31
  L 684.52 735.31
  A 18.86 18.04 -0.0 0 1 703.38 753.35
  L 703.38 755.03
  A 18.86 18.04 -0.0 0 1 684.52 773.07
  L 656.98 773.07
  A 1.94 1.94 0.0 0 1 655.04 771.13
  L 655.04 737.25
  Z
  M 656.01 737.09
  L 655.95 771.05
  A 0.98 0.98 0.0 0 0 656.93 772.03
  L 683.64 772.08
  A 18.41 16.19 0.1 0 0 702.08 755.92
  L 702.08 752.38
  A 18.41 16.19 0.1 0 0 683.70 736.16
  L 656.99 736.11
  A 0.98 0.98 0.0 0 0 656.01 737.09
  Z"
/>
<path fill="#ffffff" d="
  M 656.01 737.09
  A 0.98 0.98 0.0 0 1 656.99 736.11
  L 683.70 736.16
  A 18.41 16.19 0.1 0 1 702.08 752.38
  L 702.08 755.92
  A 18.41 16.19 0.1 0 1 683.64 772.08
  L 656.93 772.03
  A 0.98 0.98 0.0 0 1 655.95 771.05
  L 656.01 737.09
  Z"
/>
<path fill="#000309" d="
  M 394.03 739.28
  Q 394.00 740.39 393.64 741.42
  Q 384.38 767.78 376.14 789.09
  A 0.26 0.26 0.0 0 0 376.38 789.45
  L 412.32 789.45
  A 0.38 0.38 0.0 0 0 412.68 788.94
  L 395.02 739.51
  Q 395.93 738.95 396.51 740.23
  C 397.15 741.67 397.43 743.26 397.92 744.51
  Q 405.66 764.49 413.79 789.15
  A 1.02 1.02 0.0 0 1 412.83 790.48
  L 376.67 790.83
  A 1.27 1.19 -32.8 0 1 376.23 790.75
  C 374.77 790.18 375.00 788.32 375.65 787.01
  Q 376.23 785.83 379.89 776.10
  Q 387.93 754.68 393.25 739.33
  A 0.31 0.29 88.0 0 1 393.38 739.18
  Q 393.72 739.01 394.03 739.28
  Z"
/>
<path fill="#ffffff" d="
  M 395.02 739.51
  L 412.68 788.94
  A 0.38 0.38 0.0 0 1 412.32 789.45
  L 376.38 789.45
  A 0.26 0.26 0.0 0 1 376.14 789.09
  Q 384.38 767.78 393.64 741.42
  Q 394.00 740.39 394.03 739.28
  Q 394.42 739.23 395.02 739.51
  Z"
/>
</svg>
